# xmcd CD database file
#
# Track frame offsets:
#	150
#	14010
#	26720
#	48665
#	74100
#	83850
#	102910
#	122045
#	153445
#	179025
#	201915
#	226755
#	244350
#
# Disc length: 3345 seconds
#
# Revision: 0
# Processed by: cddbd v1.5.2PL0 Copyright (c) Steve Scherf et al.
# Submitted via: CDex 1.70beta2
#
DISCID=be0d0f0d
DTITLE=Bonnie Brett - The Elvis Costello Songbook
DYEAR=2003
DGENRE=Jazz
TTITLE0=B Movie
TTITLE1=Black and White World
TTITLE2=Complicated Shadows
TTITLE3=Watching The Detectives 
TTITLE4=Boy With A Problem
TTITLE5=Love Field
TTITLE6=(The Angels Wanna Wear My) Red Shoes
TTITLE7=I Want You
TTITLE8=Baby Plays Around
TTITLE9=A Punishing Kiss
TTITLE10=I Want To Vanish
TTITLE11=The Birds Will Still Be Singing
TTITLE12=Sneaky Feelings
EXTD=YEAR: 2003
EXTT0=
EXTT1=
EXTT2=
EXTT3=
EXTT4=
EXTT5=
EXTT6=
EXTT7=
EXTT8=
EXTT9=
EXTT10=
EXTT11=
EXTT12=
PLAYORDER=
